<svg xmlns="http://www.w3.org/2000/svg" xmlns:xlink="http://www.w3.org/1999/xlink" width="500" zoomAndPan="magnify" viewBox="0 0 375 374.999991" height="500" preserveAspectRatio="xMidYMid meet" version="1.0"><defs><clipPath id="3090d58da7"><path d="M 24 28.5 L 352 28.5 L 352 346.5 L 24 346.5 Z M 24 28.5 " clip-rule="nonzero"/></clipPath><clipPath id="13120e43b3"><path d="M 107.753906 264.917969 C 111.730469 264.917969 117.714844 262.347656 124.933594 254.964844 C 143.851562 235.667969 161.972656 215.722656 176.515625 199.667969 C 187.210938 187.855469 195.539062 178.699219 200.855469 173.429688 C 194.011719 152.605469 187.230469 132.449219 183.882812 125.886719 C 182.648438 122.980469 180.199219 120.742188 177.207031 119.761719 L 176.746094 119.699219 C 173.984375 119.699219 171.371094 121.765625 169.570312 123.585938 C 164.191406 128.960938 157.726562 140.792969 148.726562 157.164062 L 145.128906 163.726562 C 144.394531 165.066406 121.148438 208.574219 109.660156 232.910156 L 108.464844 235.417969 C 104.65625 243.425781 101.351562 250.347656 101.351562 257.664062 C 101.101562 260.484375 102.585938 263.164062 105.140625 264.417969 L 105.871094 264.710938 L 107.777344 264.875 Z M 255.617188 277.273438 C 234.628906 277.273438 226.824219 252.75 221.527344 236.066406 L 218.914062 228.121094 C 215.816406 219.257812 212.511719 209.304688 208.472656 197.011719 L 218.328125 187.8125 C 222.992188 201.988281 226.949219 214.074219 230.421875 223.960938 L 233.207031 232.304688 C 239.085938 250.703125 244.589844 264.9375 256.078125 264.9375 L 257.855469 264.855469 C 262.25 264.082031 268.089844 260.695312 268.089844 251.894531 C 268.152344 237.132812 259.027344 221.117188 249.339844 204.183594 L 247.332031 200.710938 C 238.4375 185.03125 230.507812 176.480469 223.832031 175.246094 L 222.765625 175.144531 C 219.644531 175.144531 217.113281 175.957031 215 177.507812 C 207.886719 181.5 177.332031 216.914062 172.875 221.789062 C 160.96875 234.832031 147.535156 249.300781 133.621094 263.476562 C 122.90625 274.390625 113.90625 277.023438 107.691406 277.023438 C 104.46875 277.023438 102.019531 276.3125 100.472656 275.6875 C 93.316406 272.589844 88.796875 265.421875 89.089844 257.644531 C 89.089844 247.585938 93.148438 239.097656 97.4375 230.148438 L 98.609375 227.703125 C 110.351562 202.824219 134.140625 158.375 134.351562 157.9375 L 137.972656 151.351562 C 147.785156 133.453125 154.273438 121.601562 160.863281 114.992188 C 166.785156 109.078125 172.289062 107.53125 176.453125 107.53125 L 177.394531 107.53125 L 179.070312 107.738281 C 188.425781 109.265625 193.425781 117.796875 194.742188 120.386719 C 198.257812 127.328125 204.285156 144.953125 211.109375 165.695312 C 214.496094 163.855469 218.265625 162.914062 222.074219 162.914062 L 224.667969 163.015625 C 236.804688 165.210938 246.808594 174.890625 257.917969 194.671875 L 259.949219 198.203125 C 270.015625 215.890625 280.308594 233.976562 280.308594 252.019531 C 280.8125 263.9375 272.546875 274.429688 260.828125 276.753906 L 255.535156 277.253906 Z M 98.191406 336.191406 L 98.210938 336.191406 C 106.6875 336.191406 116.167969 335.648438 126.671875 334.558594 C 188.132812 328.203125 229.292969 318.484375 283.761719 302.824219 C 312.472656 294.566406 330.113281 282.042969 336.203125 265.359375 C 345.746094 239.558594 326.976562 206.753906 311.992188 184.300781 C 292.238281 154.71875 270.726562 123.148438 244.378906 92.558594 L 242.203125 90.03125 C 223.433594 68.078125 200.015625 40.816406 176.371094 40.816406 L 176.140625 40.816406 C 160.339844 40.917969 136.445312 41.128906 97.710938 120.011719 C 96.601562 122.542969 60.964844 199.355469 41.253906 261.78125 C 31.480469 292.472656 37.738281 316.914062 58.308594 328.8125 C 66.804688 333.722656 80.152344 336.210938 98.171875 336.210938 Z M 98.734375 348.464844 C 82.894531 348.464844 64.773438 346.601562 52.300781 339.367188 C 26.75 324.566406 18.148438 294.230469 29.535156 258.101562 C 49.621094 194.191406 86.242188 115.703125 86.660156 114.785156 C 125.542969 35.589844 152.140625 28.773438 176.078125 28.605469 L 176.390625 28.605469 C 205.667969 28.605469 231.070312 58.230469 251.515625 82.085938 L 253.691406 84.617188 C 280.5625 115.808594 302.21875 147.609375 322.308594 177.546875 C 338.609375 202.175781 359.136719 238.535156 347.796875 269.539062 C 340.285156 290.027344 319.902344 305.164062 287.257812 314.53125 C 232.117188 330.398438 190.414062 340.226562 128.054688 346.6875 C 118.324219 347.773438 108.550781 348.378906 98.757812 348.441406 Z M 98.734375 348.464844 " clip-rule="nonzero"/></clipPath></defs><g clip-path="url(#3090d58da7)"><g clip-path="url(#13120e43b3)"><path fill="#ffffff" d="M -119.625 108.078125 L 272.398438 -118.054688 L 494.925781 267.027344 L 102.898438 493.160156 Z M -119.625 108.078125 " fill-opacity="1" fill-rule="nonzero"/></g></g></svg>