<svg xmlns="http://www.w3.org/2000/svg" xmlns:xlink="http://www.w3.org/1999/xlink" width="500" zoomAndPan="magnify" viewBox="0 0 375 374.999991" height="500" preserveAspectRatio="xMidYMid meet" version="1.0"><defs><clipPath id="bfe3504ae3"><path d="M 24 28.511719 L 352 28.511719 L 352 346.511719 L 24 346.511719 Z M 24 28.511719 " clip-rule="nonzero"/></clipPath><clipPath id="ced3f1a8b2"><path d="M 107.765625 264.929688 C 111.742188 264.929688 117.726562 262.359375 124.945312 254.976562 C 143.863281 235.679688 161.984375 215.734375 176.527344 199.679688 C 187.222656 187.867188 195.550781 178.707031 200.867188 173.441406 C 194.023438 152.617188 187.242188 132.460938 183.894531 125.898438 C 182.660156 122.992188 180.210938 120.753906 177.21875 119.769531 L 176.757812 119.707031 C 173.996094 119.707031 171.382812 121.777344 169.582031 123.597656 C 164.203125 128.96875 157.738281 140.804688 148.738281 157.175781 L 145.140625 163.738281 C 144.40625 165.078125 121.160156 208.585938 109.671875 232.921875 L 108.476562 235.429688 C 104.667969 243.4375 101.363281 250.355469 101.363281 257.675781 C 101.113281 260.496094 102.597656 263.171875 105.152344 264.429688 L 105.882812 264.71875 L 107.789062 264.886719 Z M 255.628906 277.285156 C 234.640625 277.285156 226.835938 252.761719 221.539062 236.078125 L 218.925781 228.132812 C 215.828125 219.269531 212.523438 209.316406 208.484375 197.023438 L 218.339844 187.824219 C 223.003906 202 226.960938 214.082031 230.433594 223.972656 L 233.21875 232.316406 C 239.097656 250.710938 244.601562 264.949219 256.089844 264.949219 L 257.867188 264.867188 C 262.261719 264.09375 268.101562 260.707031 268.101562 251.90625 C 268.164062 237.144531 259.039062 221.128906 249.351562 204.195312 L 247.34375 200.722656 C 238.449219 185.042969 230.519531 176.492188 223.84375 175.257812 L 222.773438 175.152344 C 219.65625 175.152344 217.125 175.96875 215.011719 177.515625 C 207.898438 181.511719 177.34375 216.925781 172.886719 221.796875 C 160.980469 234.84375 147.546875 249.3125 133.632812 263.488281 C 122.917969 274.402344 113.917969 277.035156 107.703125 277.035156 C 104.480469 277.035156 102.03125 276.324219 100.484375 275.695312 C 93.328125 272.601562 88.808594 265.429688 89.101562 257.652344 C 89.101562 247.597656 93.160156 239.109375 97.449219 230.160156 L 98.621094 227.714844 C 110.359375 202.835938 134.152344 158.386719 134.363281 157.949219 L 137.984375 151.363281 C 147.796875 133.464844 154.285156 121.609375 160.875 115.003906 C 166.796875 109.085938 172.300781 107.539062 176.464844 107.539062 L 177.40625 107.539062 L 179.082031 107.75 C 188.4375 109.277344 193.4375 117.804688 194.753906 120.398438 C 198.269531 127.339844 204.296875 144.964844 211.121094 165.703125 C 214.507812 163.863281 218.277344 162.921875 222.085938 162.921875 L 224.679688 163.027344 C 236.816406 165.222656 246.820312 174.902344 257.929688 194.679688 L 259.960938 198.214844 C 270.027344 215.902344 280.320312 233.988281 280.320312 252.03125 C 280.824219 263.945312 272.558594 274.441406 260.839844 276.761719 L 255.546875 277.265625 Z M 98.203125 336.203125 L 98.222656 336.203125 C 106.699219 336.203125 116.179688 335.660156 126.683594 334.570312 C 188.144531 328.214844 229.304688 318.492188 283.773438 302.835938 C 312.484375 294.578125 330.125 282.054688 336.214844 265.367188 C 345.757812 239.570312 326.988281 206.765625 312.003906 184.3125 C 292.25 154.726562 270.738281 123.15625 244.390625 92.570312 L 242.214844 90.039062 C 223.445312 68.089844 200.027344 40.824219 176.382812 40.824219 L 176.152344 40.824219 C 160.351562 40.929688 136.457031 41.140625 97.722656 120.023438 C 96.613281 122.550781 60.976562 199.363281 41.265625 261.792969 C 31.492188 292.484375 37.75 316.925781 58.320312 328.820312 C 66.8125 333.734375 80.164062 336.222656 98.183594 336.222656 Z M 98.746094 348.476562 C 82.90625 348.476562 64.785156 346.613281 52.3125 339.378906 C 26.761719 324.578125 18.160156 294.242188 29.546875 258.113281 C 49.632812 194.199219 86.253906 115.714844 86.671875 114.796875 C 125.554688 35.597656 152.148438 28.78125 176.089844 28.617188 L 176.402344 28.617188 C 205.679688 28.617188 231.082031 58.242188 251.527344 82.097656 L 253.703125 84.625 C 280.574219 115.820312 302.230469 147.621094 322.320312 177.558594 C 338.621094 202.1875 359.148438 238.542969 347.808594 269.550781 C 340.296875 290.039062 319.914062 305.175781 287.269531 314.542969 C 232.128906 330.410156 190.425781 340.238281 128.066406 346.699219 C 118.335938 347.785156 108.5625 348.390625 98.769531 348.453125 Z M 98.746094 348.476562 " clip-rule="nonzero"/></clipPath></defs><g clip-path="url(#bfe3504ae3)"><g clip-path="url(#ced3f1a8b2)"><path fill="#000000" d="M -119.613281 108.089844 L 272.410156 -118.042969 L 494.9375 267.035156 L 102.910156 493.171875 Z M -119.613281 108.089844 " fill-opacity="1" fill-rule="nonzero"/></g></g></svg>